<svg width="1212" height="244" viewBox="0 0 1212 244" fill="none" xmlns="http://www.w3.org/2000/svg">
<path d="M0 0H1212V244H0V0Z" fill="#3C3C3C"/>
<path d="M744.246 209.183C745.793 206.557 749.592 206.557 751.139 209.183L771.647 243.999H723.738L744.246 209.183Z" fill="#454545"/>
<path d="M793.172 191.605C794.726 189.02 798.473 189.02 800.028 191.605L831.533 243.999H761.666L793.172 191.605Z" fill="#454545"/>
<path d="M872.003 114.295C873.55 111.669 877.349 111.669 878.896 114.295L955.298 244H795.602L872.003 114.295Z" fill="#333333"/>
<path d="M973.81 182.073C975.357 179.446 979.156 179.446 980.703 182.073L1017.18 243.999H937.332L973.81 182.073Z" fill="#333333"/>
<path d="M140.186 114.295C138.639 111.669 134.84 111.669 133.293 114.295L56.8915 244H216.588L140.186 114.295Z" fill="#414141"/>
<path d="M240.995 182.073C239.448 179.446 235.649 179.446 234.102 182.073L197.624 243.999H277.473L240.995 182.073Z" fill="#414141"/>
<path d="M335.815 114.295C334.268 111.669 330.469 111.669 328.922 114.295L252.52 244H412.217L335.815 114.295Z" fill="#333333"/>
<path d="M436.623 182.073C435.076 179.446 431.277 179.446 429.73 182.073L393.252 243.999H473.101L436.623 182.073Z" fill="#333333"/>
<ellipse cx="202" cy="133.453" rx="19" ry="18.9224" fill="#5A5858"/>
</svg>
